<svg width="29" height="33" viewBox="0 0 29 33" fill="none" xmlns="http://www.w3.org/2000/svg">
<path d="M3.23851 32.5994C1.10773 32.5994 0.252189 28.8202 0.0746235 27.3149C-0.116538 25.8535 0.0609532 24.3678 0.591176 22.9912C0.824216 22.3362 1.22506 21.7525 1.75431 21.2977C2.28356 20.8429 2.923 20.5325 3.60978 20.397C5.49843 20.0767 6.83824 21.1977 8.54932 21.582C8.87074 21.6843 9.21341 21.7023 9.54391 21.6341C9.87441 21.5659 10.1815 21.414 10.4351 21.193C10.6887 20.972 10.8803 20.6896 10.9912 20.3733C11.102 20.057 11.1283 19.7176 11.0675 19.3881C10.3573 16.6338 5.30472 16.5858 3.23851 16.5858C3.23851 13.6072 6.53154 13.2229 8.88831 13.4471C10.2864 13.5811 11.6631 13.8822 12.9885 14.3439C13.7956 14.6161 14.7318 15.3047 15.6196 15.2406C16.9595 15.1285 17.2339 13.7514 16.6528 12.7425C15.2484 10.3725 11.2612 10.1803 8.88831 10.1803C8.88831 6.97761 11.6809 6.36909 14.3605 6.8495C15.7442 7.11944 17.0926 7.54383 18.38 8.11457C19.2032 8.46687 20.1879 9.13944 21.0919 8.83519C23.4164 8.13059 20.995 5.66449 19.9619 5.07199C19.2368 4.67507 18.4676 4.36337 17.6697 4.1432C16.798 3.88698 15.7326 3.98307 16.5236 2.97421C17.7604 1.89171 19.2949 1.20028 20.9305 0.988523C23.9813 0.283924 28.1945 0.155815 28.937 3.96705C29.1845 5.97924 28.6978 8.01283 27.5649 9.69992C24.5577 14.8029 20.8346 19.456 16.5075 23.5197C14.2155 25.8504 11.7318 27.9876 9.08202 29.9091C7.46779 31.0621 5.33701 32.5994 3.23851 32.5994Z" fill="#E6361D"/>
</svg>
