<svg width="32" height="32" viewBox="0 0 32 32" fill="none" xmlns="http://www.w3.org/2000/svg">
<path d="M29.7146 5.33271C29.1101 4.72652 28.3561 4.29092 27.529 4.07009C27.3522 3.41663 27.0413 2.80714 26.6161 2.28045C26.1908 1.75377 25.6605 1.32142 25.0589 1.01096C24.4574 0.70049 23.7978 0.51871 23.1221 0.477194C22.4464 0.435679 21.7695 0.535337 21.1345 0.769822C20.4995 1.00431 19.9202 1.36848 19.4337 1.83914C18.9471 2.3098 18.5639 2.87664 18.3085 3.50354C18.0531 4.13045 17.931 4.80368 17.9501 5.48035C17.9691 6.15703 18.1289 6.82231 18.4193 7.43384L17.1063 8.75009C17.0878 8.74732 17.0694 8.74461 17.051 8.74196C15.5446 8.55184 13.8725 8.66396 12.2264 8.98896C8.97638 9.63246 5.48425 11.1778 3.28563 13.3765C1.06588 15.5962 0.149375 18.2157 0.383375 20.8368C0.614125 23.4092 1.93363 25.8126 3.86088 27.7382C5.78813 29.6655 8.18988 30.9866 10.7622 31.2157C13.3834 31.4513 16.0029 30.5332 18.2243 28.3135C20.4213 26.1148 21.9683 22.626 22.6118 19.3727C22.9368 17.7282 23.0473 16.0545 22.8588 14.5497C22.8561 14.5313 22.8534 14.5129 22.8506 14.4945L24.1653 13.1782C25.2028 13.6716 26.3811 13.7828 27.4927 13.4923C28.6042 13.2018 29.5774 12.5282 30.2408 11.5903C30.9043 10.6524 31.2153 9.51033 31.119 8.36553C31.0227 7.22073 30.5254 6.14667 29.7146 5.33271Z" fill="#E6361D"/>
</svg>
