<svg width="35" height="33" viewBox="0 0 35 33" fill="none" xmlns="http://www.w3.org/2000/svg">
<path d="M3.5 24.5994V9.48825H1.75V7.71048H3.5V5.9327H1.75V4.15492H3.5V2.37714H1.75V0.599365H12.25C13.125 0.652699 13.9125 1.02603 14.595 1.71937C15.2775 2.4127 15.6625 3.26603 15.75 4.15492H33.25V5.9327H15.75C15.6625 6.87492 15.2775 7.71048 14.595 8.47492C13.9125 9.23936 13.125 9.57714 12.25 9.48825H8.75V22.0216C8.8375 22.0216 8.9775 22.0038 9.17 21.9327C9.3625 21.8616 9.52 21.9327 9.625 21.9327C10.605 21.9327 11.725 22.1816 12.985 22.6794C13.7025 21.0438 14.9275 19.586 16.6775 18.3771C18.4275 17.1683 20.1775 16.5994 21.9275 16.5994C24.605 16.5994 26.88 17.5416 28.735 19.426C30.59 21.3105 31.5 23.6216 31.5 26.3771V26.8571C31.5 27.0883 31.4475 27.2127 31.4475 27.266H1.995C2.2225 26.3771 2.7125 25.4883 3.5 24.5994ZM7 22.3416V9.48825H5.25V23.1771C6.125 22.7327 6.6675 22.466 7 22.3416ZM12.25 7.71048V5.9327H8.75V7.71048H12.25ZM12.25 2.37714H8.75V4.15492H12.25V2.37714ZM5.25 2.37714V4.15492H7V2.37714H5.25ZM5.25 5.9327V7.71048H7V5.9327H5.25ZM0 29.0438H35L31.5 32.5994H3.5L0 29.0438Z" fill="#E6361D"/>
</svg>
