<svg width="33" height="33" viewBox="0 0 33 33" fill="none" xmlns="http://www.w3.org/2000/svg">
<path d="M32.9297 6.37399C32.8571 6.07067 32.7253 5.78488 32.5419 5.53318C32.3586 5.28148 32.1274 5.06889 31.8617 4.90774C27.2274 2.08928 21.9144 0.599365 16.4982 0.599365C11.082 0.599365 5.76902 2.08928 1.13476 4.90774C0.869822 5.06928 0.639166 5.28176 0.455987 5.53301C0.272809 5.78426 0.140702 6.06936 0.0672269 6.37199C-0.0062486 6.67463 -0.0196512 6.98886 0.0277856 7.2967C0.0752224 7.60455 0.182568 7.89997 0.34368 8.16607L14.4859 31.4587C14.696 31.8069 14.9918 32.0948 15.3448 32.2946C15.6978 32.4944 16.0961 32.5994 16.5012 32.5994C16.9063 32.5994 17.3045 32.4944 17.6575 32.2946C18.0105 32.0948 18.3063 31.8069 18.5164 31.4587L32.6586 8.16607C32.8199 7.90043 32.927 7.60514 32.9735 7.29745C33.0201 6.98975 33.0052 6.67582 32.9297 6.37399ZM24.8126 16.5237C23.5027 15.9259 22.0206 15.8306 20.6456 16.2556C19.2705 16.6806 18.0977 17.5966 17.348 18.8309C16.5983 20.0653 16.3237 21.5327 16.5758 22.9566C16.8279 24.3804 17.5894 25.6624 18.7168 26.5608L16.4982 30.219L11.8578 22.5812C12.6196 22.2361 13.2998 21.7319 13.853 21.1023C14.4063 20.4727 14.82 19.732 15.0667 18.9294C15.3135 18.1267 15.3876 17.2805 15.2842 16.4468C15.1808 15.6132 14.9022 14.8112 14.4669 14.094C14.0316 13.3769 13.4496 12.7611 12.7595 12.2874C12.0693 11.8137 11.2869 11.4929 10.4641 11.3465C9.64123 11.2001 8.79683 11.2312 7.9869 11.438C7.17697 11.6447 6.42004 12.0222 5.76633 12.5456L4.83088 11.0038C8.34439 8.84755 12.3811 7.70676 16.4975 7.70676C20.6138 7.70676 24.6506 8.84755 28.1641 11.0038L24.8126 16.5237Z" fill="white"/>
</svg>
